<svg width="46" height="45" viewBox="0 0 46 45" fill="none" xmlns="http://www.w3.org/2000/svg">
<g clip-path="url(#clip0_27_190)">
<path d="M8.78882 3.5687e-06H37.3836C38.4136 -0.000992013 39.4335 0.206329 40.3852 0.610103C41.3369 1.01388 42.2016 1.60617 42.9299 2.3531C43.6581 3.10003 44.2356 3.98692 44.6293 4.96301C45.023 5.93911 45.2251 6.98525 45.2242 8.04156V36.2343C45.2251 37.2906 45.023 38.3368 44.6293 39.3129C44.2356 40.2889 43.6581 41.1758 42.9299 41.9228C42.2016 42.6697 41.3369 43.262 40.3852 43.6658C39.4335 44.0695 38.4136 44.2769 37.3836 44.2759H8.78882C7.75892 44.2769 6.73893 44.0695 5.78724 43.6658C4.83555 43.262 3.97083 42.6697 3.24258 41.9228C2.51432 41.1758 1.93683 40.2889 1.54315 39.3129C1.14947 38.3368 0.947336 37.2906 0.948307 36.2343V8.04156C0.947336 6.98525 1.14947 5.93911 1.54315 4.96301C1.93683 3.98692 2.51432 3.10003 3.24258 2.3531C3.97083 1.60617 4.83555 1.01388 5.78724 0.610103C6.73893 0.206329 7.75892 -0.000992013 8.78882 3.5687e-06Z" fill="#F0F0F0"/>
<path d="M23.0891 36.0701L13.1298 33.3053L10.9104 8.41248H35.2975L33.0758 33.3015L23.0891 36.0701Z" fill="#264DE4"/>
<path d="M31.1738 31.7166L33.0723 10.4478H23.1039V33.9538L31.1738 31.7166Z" fill="#2965F1"/>
<path d="M15.9983 19.6802L16.2719 22.7332H23.104V19.6802H15.9983ZM15.4485 13.5009L15.726 16.5539H23.104V13.5009H15.4485ZM23.104 27.6092L23.0906 27.6127L19.6905 26.6946L19.4731 24.2597H16.4084L16.836 29.0534L23.0899 30.7894L23.104 30.7856V27.6092Z" fill="#EBEBEB"/>
<path d="M30.1901 19.6802L30.7412 13.5009H23.0934V16.5539H27.3954L27.1176 19.6802H23.0934V22.7332H26.8529L26.4984 26.6927L23.0933 27.6118V30.788L29.3522 29.0534L29.3981 28.5376L30.1156 20.5L30.1901 19.6802Z" fill="white"/>
</g>
<defs>
<clipPath id="clip0_27_190">
<rect width="44.2759" height="44.2759" fill="white" transform="translate(0.948303)"/>
</clipPath>
</defs>
</svg>
