<svg width="45" height="45" viewBox="0 0 45 45" fill="none" xmlns="http://www.w3.org/2000/svg">
<g clip-path="url(#clip0_27_208)">
<path d="M7.89228 3.5687e-06H36.4871C37.517 -0.000992013 38.537 0.206329 39.4887 0.610103C40.4404 1.01388 41.3051 1.60617 42.0333 2.3531C42.7616 3.10003 43.3391 3.98692 43.7328 4.96301C44.1264 5.93911 44.3286 6.98525 44.3276 8.04156V36.2343C44.3286 37.2906 44.1264 38.3368 43.7328 39.3129C43.3391 40.2889 42.7616 41.1758 42.0333 41.9228C41.3051 42.6697 40.4404 43.262 39.4887 43.6658C38.537 44.0695 37.517 44.2769 36.4871 44.2759H7.89228C6.86237 44.2769 5.84239 44.0695 4.89069 43.6658C3.939 43.262 3.07428 42.6697 2.34603 41.9228C1.61778 41.1758 1.04029 40.2889 0.646608 39.3129C0.252929 38.3368 0.0507906 37.2906 0.0517613 36.2343V8.04156C0.0507906 6.98525 0.252929 5.93911 0.646608 4.96301C1.04029 3.98692 1.61778 3.10003 2.34603 2.3531C3.07428 1.60617 3.939 1.01388 4.89069 0.610103C5.84239 0.206329 6.86237 -0.000992013 7.89228 3.5687e-06Z" fill="#000B1D"/>
<path d="M17.9467 35.6421C20.4938 35.6421 22.5587 33.5772 22.5587 31.03V26.418H17.9467C15.3995 26.418 13.3346 28.4829 13.3346 31.03C13.3346 33.5772 15.3995 35.6421 17.9467 35.6421Z" fill="#0ACF83"/>
<path d="M13.3346 21.8059C13.3346 19.2587 15.3995 17.1938 17.9467 17.1938H22.5587V26.4179H17.9467C15.3995 26.4179 13.3346 24.353 13.3346 21.8059Z" fill="#A259FF"/>
<path d="M13.3346 12.5817C13.3346 10.0346 15.3995 7.96967 17.9467 7.96967H22.5587V17.1938H17.9467C15.3995 17.1938 13.3346 15.1289 13.3346 12.5817Z" fill="#F24E1E"/>
<path d="M22.5587 7.96967H27.1708C29.718 7.96967 31.7829 10.0346 31.7829 12.5817C31.7829 15.1289 29.718 17.1938 27.1708 17.1938H22.5587V7.96967Z" fill="#FF7262"/>
<path d="M31.7829 21.8059C31.7829 24.353 29.718 26.4179 27.1708 26.4179C24.6236 26.4179 22.5587 24.353 22.5587 21.8059C22.5587 19.2587 24.6236 17.1938 27.1708 17.1938C29.718 17.1938 31.7829 19.2587 31.7829 21.8059Z" fill="#1ABCFE"/>
</g>
<defs>
<clipPath id="clip0_27_208">
<rect width="44.2759" height="44.2759" fill="white" transform="translate(0.0517578)"/>
</clipPath>
</defs>
</svg>
