<svg width="46" height="45" viewBox="0 0 46 45" fill="none" xmlns="http://www.w3.org/2000/svg">
<path d="M8.6164 3.5687e-06H37.2112C38.2411 -0.000992013 39.2611 0.206329 40.2128 0.610103C41.1645 1.01388 42.0292 1.60617 42.7575 2.3531C43.4857 3.10003 44.0632 3.98692 44.4569 4.96301C44.8506 5.93911 45.0527 6.98525 45.0517 8.04156V36.2343C45.0527 37.2906 44.8506 38.3368 44.4569 39.3129C44.0632 40.2889 43.4857 41.1758 42.7575 41.9228C42.0292 42.6697 41.1645 43.262 40.2128 43.6658C39.2611 44.0695 38.2411 44.2769 37.2112 44.2759H8.6164C7.58649 44.2769 6.56651 44.0695 5.61481 43.6658C4.66312 43.262 3.7984 42.6697 3.07015 41.9228C2.3419 41.1758 1.76441 40.2889 1.37073 39.3129C0.97705 38.3368 0.774912 37.2906 0.775882 36.2343V8.04156C0.774912 6.98525 0.97705 5.93911 1.37073 4.96301C1.76441 3.98692 2.3419 3.10003 3.07015 2.3531C3.7984 1.60617 4.66312 1.01388 5.61481 0.610103C6.56651 0.206329 7.58649 -0.000992013 8.6164 3.5687e-06Z" fill="#F0F0F0"/>
<path d="M38.8912 20.6589L24.3919 6.16077C23.5577 5.32572 22.2035 5.32572 21.3682 6.16077L18.3575 9.17181L22.1764 12.9908C23.0642 12.6911 24.0818 12.8921 24.7892 13.5996C25.5002 14.3115 25.6997 15.3378 25.3925 16.2286L29.0732 19.9095C29.9637 19.6026 30.9911 19.8009 31.7021 20.5132C32.6962 21.5071 32.6962 23.1175 31.7021 24.1116C30.7079 25.106 29.0975 25.106 28.1027 24.1116C27.3552 23.3635 27.1704 22.2652 27.5489 21.3442L24.1163 17.9114L24.116 26.9448C24.3583 27.0647 24.5871 27.2249 24.789 27.426C25.7828 28.4197 25.7828 30.0298 24.789 31.0252C23.7949 32.0189 22.1838 32.0189 21.1908 31.0252C20.1968 30.0299 20.1968 28.4198 21.1908 27.426C21.4364 27.1808 21.7207 26.9952 22.0239 26.8708V17.7534C21.7205 17.6295 21.4366 17.4453 21.1906 17.1981C20.4377 16.4458 20.2564 15.3408 20.6425 14.4162L16.8779 10.6508L6.93688 20.5919C6.10161 21.4276 6.10161 22.7818 6.93688 23.6169L21.4353 38.1151C22.27 38.9501 23.6238 38.9501 24.4597 38.1151L38.8911 23.6854C39.7261 22.85 39.7261 21.4953 38.8911 20.6601" fill="#F05133"/>
</svg>
