<svg width="45" height="45" viewBox="0 0 45 45" fill="none" xmlns="http://www.w3.org/2000/svg">
<g clip-path="url(#clip0_27_183)">
<path d="M8.51294 3.5687e-06H37.1078C38.1377 -0.000992013 39.1577 0.206329 40.1094 0.610103C41.061 1.01388 41.9258 1.60617 42.654 2.3531C43.3823 3.10003 43.9598 3.98692 44.3534 4.96301C44.7471 5.93911 44.9493 6.98525 44.9483 8.04156V36.2343C44.9493 37.2906 44.7471 38.3368 44.3534 39.3129C43.9598 40.2889 43.3823 41.1758 42.654 41.9228C41.9258 42.6697 41.061 43.262 40.1094 43.6658C39.1577 44.0695 38.1377 44.2769 37.1078 44.2759H8.51294C7.48304 44.2769 6.46305 44.0695 5.51136 43.6658C4.55967 43.262 3.69495 42.6697 2.9667 41.9228C2.23844 41.1758 1.66095 40.2889 1.26727 39.3129C0.873596 38.3368 0.671457 37.2906 0.672428 36.2343V8.04156C0.671457 6.98525 0.873596 5.93911 1.26727 4.96301C1.66095 3.98692 2.23844 3.10003 2.9667 2.3531C3.69495 1.60617 4.55967 1.01388 5.51136 0.610103C6.46305 0.206329 7.48304 -0.000992013 8.51294 3.5687e-06Z" fill="#F0F0F0"/>
<path d="M35.0043 8.41241L32.7825 33.302L22.7955 36.0707L12.836 33.3059L10.6165 8.41241H35.0043Z" fill="#E44D26"/>
<path d="M22.8104 33.9544L30.8804 31.7171L32.779 10.4478H22.8104V33.9544Z" fill="#F16529"/>
<path d="M18.4913 16.554H22.8104V13.5009H15.1547L15.2278 14.32L15.9782 22.7335H22.8104V19.6804H18.7704L18.4913 16.554ZM19.1795 24.2601H16.1146L16.5423 29.0539L22.7964 30.7899L22.8104 30.7861V27.6096L22.797 27.6131L19.3968 26.695L19.1795 24.2601Z" fill="#EBEBEB"/>
<path d="M22.7999 22.7335H26.5594L26.205 26.6931L22.7998 27.6122V30.7885L29.0588 29.0539L29.1047 28.538L29.8223 20.5002L29.8967 19.6804H22.7999V22.7335ZM22.7999 16.5465V16.554H30.1745L30.2357 15.8678L30.3749 14.32L30.4478 13.5009H22.7999V16.5466V16.5465Z" fill="white"/>
</g>
<defs>
<clipPath id="clip0_27_183">
<rect width="44.2759" height="44.2759" fill="white" transform="translate(0.672424)"/>
</clipPath>
</defs>
</svg>
