<svg width="45" height="45" viewBox="0 0 45 45" fill="none" xmlns="http://www.w3.org/2000/svg">
<g clip-path="url(#clip0_27_180)">
<path d="M8.06464 3.5687e-06H36.6595C37.6894 -0.000992013 38.7094 0.206329 39.661 0.610103C40.6127 1.01388 41.4775 1.60617 42.2057 2.3531C42.934 3.10003 43.5115 3.98692 43.9051 4.96301C44.2988 5.93911 44.501 6.98525 44.5 8.04156V36.2343C44.501 37.2906 44.2988 38.3368 43.9051 39.3129C43.5115 40.2889 42.934 41.1758 42.2057 41.9228C41.4775 42.6697 40.6127 43.262 39.661 43.6658C38.7094 44.0695 37.6894 44.2769 36.6595 44.2759H8.06464C7.03474 44.2769 6.01475 44.0695 5.06306 43.6658C4.11136 43.262 3.24665 42.6697 2.51839 41.9228C1.79014 41.1758 1.21265 40.2889 0.818971 39.3129C0.425292 38.3368 0.223154 37.2906 0.224125 36.2343V8.04156C0.223154 6.98525 0.425292 5.93911 0.818971 4.96301C1.21265 3.98692 1.79014 3.10003 2.51839 2.3531C3.24665 1.60617 4.11136 1.01388 5.06306 0.610103C6.01475 0.206329 7.03474 -0.000992013 8.06464 3.5687e-06Z" fill="#F7DF1E"/>
<path d="M30.0414 34.6441C30.9333 36.1003 32.0936 37.1706 34.1457 37.1706C35.8697 37.1706 36.971 36.309 36.971 35.1185C36.971 33.6918 35.8395 33.1865 33.9419 32.3565L32.9018 31.9102C29.8995 30.6312 27.905 29.0288 27.905 25.6413C27.905 22.5209 30.2825 20.1455 33.9982 20.1455C36.6435 20.1455 38.5452 21.0662 39.9157 23.4767L36.6758 25.557C35.9625 24.2779 35.1929 23.774 33.9982 23.774C32.7795 23.774 32.0072 24.5471 32.0072 25.557C32.0072 26.8052 32.7802 27.3105 34.5653 28.0835L35.6054 28.5291C39.1405 30.045 41.1364 31.5905 41.1364 35.0651C41.1364 38.8109 38.1938 40.8631 34.242 40.8631C30.3781 40.8631 27.8818 39.0218 26.6603 36.6084L30.0414 34.6441ZM15.344 35.0046C15.9976 36.1642 16.5921 37.1446 18.0216 37.1446C19.3885 37.1446 20.2509 36.6098 20.2509 34.5302V20.383H24.4114V34.5865C24.4114 38.8946 21.8855 40.8554 18.1987 40.8554C14.8675 40.8554 12.9383 39.1314 11.9572 37.055L15.344 35.0046Z" fill="black"/>
</g>
<defs>
<clipPath id="clip0_27_180">
<rect width="44.2759" height="44.2759" fill="white" transform="translate(0.224121)"/>
</clipPath>
</defs>
</svg>
