<svg width="45" height="45" viewBox="0 0 45 45" fill="none" xmlns="http://www.w3.org/2000/svg">
<g clip-path="url(#clip0_27_197)">
<path d="M8.34052 3.5687e-06H36.9353C37.9652 -0.000992013 38.9852 0.206329 39.9369 0.610103C40.8886 1.01388 41.7533 1.60617 42.4816 2.3531C43.2098 3.10003 43.7873 3.98692 44.181 4.96301C44.5747 5.93911 44.7768 6.98525 44.7759 8.04156V36.2343C44.7768 37.2906 44.5747 38.3368 44.181 39.3129C43.7873 40.2889 43.2098 41.1758 42.4816 41.9228C41.7533 42.6697 40.8886 43.262 39.9369 43.6658C38.9852 44.0695 37.9652 44.2769 36.9353 44.2759H8.34052C7.31062 44.2769 6.29063 44.0695 5.33894 43.6658C4.38724 43.262 3.52253 42.6697 2.79427 41.9228C2.06602 41.1758 1.48853 40.2889 1.09485 39.3129C0.701171 38.3368 0.499033 37.2906 0.500003 36.2343V8.04156C0.499033 6.98525 0.701171 5.93911 1.09485 4.96301C1.48853 3.98692 2.06602 3.10003 2.79427 2.3531C3.52253 1.60617 4.38724 1.01388 5.33894 0.610103C6.29063 0.206329 7.31062 -0.000992013 8.34052 3.5687e-06Z" fill="#000B1D"/>
<g clip-path="url(#clip1_27_197)">
<path d="M22.6379 25.0656C24.338 25.0656 25.7161 23.7053 25.7161 22.0273C25.7161 20.3492 24.338 18.989 22.6379 18.989C20.9379 18.989 19.5598 20.3492 19.5598 22.0273C19.5598 23.7053 20.9379 25.0656 22.6379 25.0656Z" fill="#61DAFB"/>
<path fill-rule="evenodd" clip-rule="evenodd" d="M7.9013 20.1314C7.15445 20.7969 6.8407 21.4387 6.8407 22.0272C6.8407 22.6157 7.15445 23.2576 7.9013 23.9231C8.64807 24.5885 9.76907 25.2203 11.2155 25.7654C14.1035 26.8538 18.1417 27.5419 22.638 27.5419C27.1343 27.5419 31.1726 26.8538 34.0606 25.7654C35.507 25.2203 36.628 24.5885 37.3748 23.9231C38.1216 23.2576 38.4354 22.6157 38.4354 22.0272C38.4354 21.4387 38.1216 20.7969 37.3748 20.1314C36.628 19.466 35.507 18.8342 34.0606 18.2891C31.1726 17.2007 27.1343 16.5126 22.638 16.5126C18.1417 16.5126 14.1035 17.2007 11.2155 18.2891C9.76907 18.8342 8.64807 19.466 7.9013 20.1314ZM10.7022 16.9622C13.7922 15.7976 18.0123 15.0922 22.638 15.0922C27.2637 15.0922 31.4839 15.7976 34.5738 16.9622C36.1163 17.5435 37.4142 18.253 38.339 19.0771C39.2637 19.9011 39.8743 20.8968 39.8743 22.0272C39.8743 23.1577 39.2637 24.1534 38.339 24.9774C37.4142 25.8014 36.1163 26.511 34.5738 27.0923C31.4839 28.2568 27.2637 28.9622 22.638 28.9622C18.0123 28.9622 13.7922 28.2568 10.7022 27.0923C9.15973 26.511 7.8619 25.8014 6.93708 24.9774C6.01234 24.1534 5.40173 23.1577 5.40173 22.0272C5.40173 20.8968 6.01234 19.9011 6.93708 19.0771C7.8619 18.253 9.15973 17.5435 10.7022 16.9622Z" fill="#61DAFB"/>
<path fill-rule="evenodd" clip-rule="evenodd" d="M16.933 8.48207C15.9757 8.17639 15.2557 8.22911 14.7394 8.52336C14.223 8.81762 13.8168 9.40674 13.6063 10.3779C13.3959 11.349 13.4021 12.6231 13.647 14.1321C14.136 17.145 15.5515 20.9411 17.7996 24.7846C20.0477 28.6281 22.6706 31.7361 25.0695 33.6605C26.271 34.6244 27.3858 35.2668 28.343 35.5724C29.3003 35.8781 30.0204 35.8254 30.5367 35.5311C31.053 35.2369 31.4593 34.6478 31.6698 33.6766C31.8802 32.7055 31.874 31.4314 31.6291 29.9224C31.14 26.9095 29.7246 23.1134 27.4765 19.2699C25.2283 15.4264 22.6055 12.3185 20.2066 10.394C19.005 9.43008 17.8902 8.78773 16.933 8.48207ZM21.1141 9.29175C23.6808 11.3508 26.4098 14.6056 28.7226 18.5598C31.0355 22.5139 32.5267 26.474 33.0499 29.6977C33.3111 31.3069 33.3375 32.7711 33.0769 33.9737C32.8163 35.1762 32.248 36.196 31.2562 36.7612C30.2644 37.3264 29.0854 37.3023 27.9001 36.9238C26.7147 36.5453 25.4433 35.7907 24.1619 34.7628C21.5952 32.7037 18.8663 29.4489 16.5534 25.4948C14.2406 21.5406 12.7494 17.5805 12.2262 14.3568C11.9649 12.7476 11.9386 11.2834 12.1992 10.0808C12.4597 8.87834 13.0281 7.85852 14.0199 7.29331C15.0117 6.72809 16.1906 6.75218 17.3759 7.13068C18.5614 7.50921 19.8328 8.26385 21.1141 9.29175Z" fill="#61DAFB"/>
<path fill-rule="evenodd" clip-rule="evenodd" d="M31.6698 10.3779C31.4593 9.40674 31.0531 8.81761 30.5367 8.52336C30.0204 8.2291 29.3004 8.17638 28.3431 8.48207C27.3859 8.78772 26.2711 9.43008 25.0695 10.394C22.6706 12.3184 20.0478 15.4264 17.7996 19.2699C15.5515 23.1134 14.1361 26.9095 13.647 29.9224C13.4021 31.4314 13.3959 32.7055 13.6063 33.6766C13.8168 34.6478 14.223 35.2369 14.7394 35.5311C15.2557 35.8254 15.9758 35.8781 16.933 35.5724C17.8902 35.2668 19.0051 34.6244 20.2066 33.6605C22.6055 31.736 25.2283 28.6281 27.4765 24.7846C29.7246 20.9411 31.1401 17.145 31.6291 14.1321C31.874 12.6231 31.8802 11.349 31.6698 10.3779ZM33.0499 14.3568C32.5267 17.5805 31.0355 21.5406 28.7227 25.4947C26.4098 29.4489 23.6809 32.7037 21.1141 34.7628C19.8328 35.7906 18.5614 36.5453 17.376 36.9238C16.1906 37.3023 15.0117 37.3264 14.0199 36.7612C13.0281 36.196 12.4598 35.1762 12.1992 33.9737C11.9386 32.7711 11.965 31.3069 12.2262 29.6977C12.7494 26.474 14.2406 22.5139 16.5534 18.5597C18.8663 14.6056 21.5953 11.3508 24.162 9.29175C25.4433 8.26385 26.7147 7.50921 27.9002 7.13068C29.0855 6.75218 30.2644 6.72809 31.2562 7.2933C32.248 7.85852 32.8163 8.87834 33.0769 10.0808C33.3375 11.2834 33.3111 12.7476 33.0499 14.3568Z" fill="#61DAFB"/>
</g>
</g>
<defs>
<clipPath id="clip0_27_197">
<rect width="44.2759" height="44.2759" fill="white" transform="translate(0.5)"/>
</clipPath>
<clipPath id="clip1_27_197">
<rect width="34.5352" height="30.329" fill="white" transform="translate(5.37036 6.86279)"/>
</clipPath>
</defs>
</svg>
